# xmcd
# Copyright (C) 1995-1998 Ti Kan
#
# Track frame offsets:
#       150
#       600
#       1050
#       1690
#       2390
#       4069
#
# Disc length: 60 seconds
#
# Revision: 0
# Processed by: cddbd v1.5.2PL0 Copyright (c) Steve Scherf et al.
# Submitted via: CD-Import v1.0
#
DISCID=20003a06
DTITLE=Plugged - Plugged
DYEAR=1900
DGENRE=
TTITLE0=Bröhö
TTITLE1=Ça C'est
TTITLE2=Krkr
TTITLE3=Closerplugged
TTITLE4=Openrplugged
TTITLE5=Pluggedparti
EXTD=
EXTT0=
EXTT1=
EXTT2=
EXTT3=
EXTT4=
EXTT5=
PLAYORDER=
